<svg version="1.0" xmlns="http://www.w3.org/2000/svg" width="240" height="240" viewBox="0 0 180 180"><path d="M20.4 5.1C13.3 7.8 6.7 13.9 3.3 20.8L.5 26.5v129l2.7 5c3.2 6.1 7.7 10.8 13.7 14.3l4.6 2.7h137l4.6-2.7c6-3.5 10.5-8.2 13.7-14.3l2.7-5v-129l-2.8-5.7c-3.4-7-10.1-13.1-17.3-15.8-5.3-1.9-7.5-2-69.7-1.9-61.5 0-64.4.1-69.3 2zm120.4 34.4c6.5 7.6-2.9 19.3-11.7 14.6-1.4-.8-2.8 0-6.9 4.2l-5.1 5.2 3.5 7c4.9 9.9 6.1 18.2 4 27.8-1 4.2-3.1 9.8-5 13l-3.3 5.5 5.6 5.6c4.3 4.2 6 5.3 7.1 4.6 2.8-1.8 7.7-1.1 10.9 1.6 4.3 3.6 4.4 9.3.2 13.5-6 5.9-14.7 2.6-15.8-6.1-.5-3.5-1.7-5.7-5.6-10.2l-5-5.6-5.3 4C91.1 137.3 68 135.3 53 119.4c-14.6-15.5-16.1-38.5-3.5-55.2 14.4-19 40.7-22.4 59.9-7.7l4.9 3.7 5.1-5.1c4.4-4.4 5.1-5.6 4.9-8.4-1-9.3 10.3-14.2 16.5-7.2z"/><path d="M75.1 57.5c-6.9 2-10.8 4.4-16.1 10.1-6.5 7-8.5 12.3-8.5 22.4 0 10.3 2.1 15.5 9.1 23 6.9 7.4 13.9 10.5 23.9 10.5 6.7 0 8.9-.4 13.6-2.7 3-1.5 6.5-3.8 7.7-5.1l2.2-2.3-7.3-7.2-7.3-7.2-4.1 1.6c-3.9 1.5-4.4 1.5-8-.2-5.1-2.5-7.9-8.1-6.4-12.6 2.5-7.2 8.7-10.2 15.3-7.5l3.6 1.5 7.3-7.4 7.3-7.3-2.3-2.5c-3.2-3.4-12.6-7.3-19.1-8-3.5-.3-7.5 0-10.9.9z"/><path d="M103.1 78.4c-7 7.1-7.3 7.5-7.5 12.5-.1 5.1-.1 5.1 7 12.2l7.2 7.1 1.5-2.3c6-9.1 6.9-21.5 2.5-31.2-1.5-3.1-2.8-5.7-3-5.7-.2 0-3.6 3.3-7.7 7.4z"/></svg>