<svg viewBox="0 0 410 450" fill="none" xmlns="http://www.w3.org/2000/svg" height="40"><path fill-rule="evenodd" clip-rule="evenodd" d="M392.971 32.0294 200 225l192.971 192.971C397.314 413.627 400 407.627 400 401V49c0-6.6274-2.686-12.6274-7.029-16.9706Z" fill="#60D5C4"/><path fill-rule="evenodd" clip-rule="evenodd" d="M392.971 32.0294 200 225 7.02942 32.0294C11.3726 27.6863 17.3726 25 24 25h352c6.627 0 12.627 2.6863 16.971 7.0294Z" fill="#71E9D8"/><path fill-rule="evenodd" clip-rule="evenodd" d="M7.02944 32.0294 200 225 7.02944 417.971C2.68629 413.627 0 407.627 0 401V49c0-6.6274 2.68629-12.6274 7.02944-16.9706Z" fill="#60D5C4"/><path fill-rule="evenodd" clip-rule="evenodd" d="M392.971 417.971 200 225 7.02942 417.971C11.3726 422.314 17.3726 425 24 425h352c6.627 0 12.627-2.686 16.971-7.029Z" fill="#71E9D8"/><rect x="50" y="75" width="300" height="300" rx="2" fill="#09B6A2"/><path d="M120.8 315.12c-19.56 0-29.34-9.78-29.34-29.34v-41.94c0-7.32-3.6-10.98-10.8-10.98-2.64 0-4.86-.84-6.66-2.52-1.68-1.68-2.52-3.84-2.52-6.48 0-2.76.84-4.98 2.52-6.66 1.8-1.68 4.02-2.52 6.66-2.52 7.2 0 10.8-3.66 10.8-10.98v-41.94c0-19.56 9.78-29.34 29.34-29.34 2.64 0 4.8.9 6.48 2.7 1.68 1.8 2.52 4.02 2.52 6.66 0 2.64-.84 4.8-2.52 6.48-1.68 1.68-3.84 2.52-6.48 2.52-7.32 0-10.98 3.66-10.98 10.98v41.94c0 4.2-.48 7.98-1.44 11.34-.96 3.36-2.4 6.3-4.32 8.82 3.84 4.92 5.76 11.58 5.76 19.98v41.94c0 7.32 3.66 10.98 10.98 10.98 2.64 0 4.8.84 6.48 2.52 1.68 1.68 2.52 3.9 2.52 6.66 0 2.64-.84 4.8-2.52 6.48-1.68 1.8-3.84 2.7-6.48 2.7Zm35.933-39.24c-3.36 0-6.3-1.2-8.82-3.6-2.4-2.52-3.6-5.46-3.6-8.82 0-3.48 1.2-6.42 3.6-8.82 2.52-2.52 5.46-3.78 8.82-3.78 3.48 0 6.42 1.26 8.82 3.78 2.4 2.4 3.6 5.34 3.6 8.82 0 3.36-1.2 6.3-3.6 8.82-2.4 2.4-5.34 3.6-8.82 3.6Zm42.89 0c-3.36 0-6.3-1.2-8.82-3.6-2.4-2.52-3.6-5.46-3.6-8.82 0-3.48 1.2-6.42 3.6-8.82 2.52-2.52 5.46-3.78 8.82-3.78 3.48 0 6.42 1.26 8.82 3.78 2.4 2.4 3.6 5.34 3.6 8.82 0 3.36-1.2 6.3-3.6 8.82-2.4 2.4-5.34 3.6-8.82 3.6Zm42.891 0c-3.36 0-6.3-1.2-8.82-3.6-2.4-2.52-3.6-5.46-3.6-8.82 0-3.48 1.2-6.42 3.6-8.82 2.52-2.52 5.46-3.78 8.82-3.78 3.48 0 6.42 1.26 8.82 3.78 2.4 2.4 3.6 5.34 3.6 8.82 0 3.36-1.2 6.3-3.6 8.82-2.4 2.4-5.34 3.6-8.82 3.6Zm36.05 39.24c-2.64 0-4.8-.9-6.48-2.7-1.68-1.68-2.52-3.84-2.52-6.48 0-2.76.84-4.98 2.52-6.66 1.68-1.68 3.84-2.52 6.48-2.52 7.32 0 10.98-3.66 10.98-10.98v-41.94c0-8.4 1.92-15.06 5.76-19.98-1.92-2.52-3.36-5.46-4.32-8.82-.96-3.36-1.44-7.14-1.44-11.34v-41.94c0-7.32-3.66-10.98-10.98-10.98-2.64 0-4.8-.84-6.48-2.52-1.68-1.68-2.52-3.84-2.52-6.48 0-2.64.84-4.86 2.52-6.66 1.68-1.8 3.84-2.7 6.48-2.7 19.56 0 29.34 9.78 29.34 29.34v41.94c0 7.32 3.6 10.98 10.8 10.98 2.64 0 4.8.84 6.48 2.52 1.8 1.68 2.7 3.9 2.7 6.66 0 2.64-.9 4.8-2.7 6.48-1.68 1.68-3.84 2.52-6.48 2.52-7.2 0-10.8 3.66-10.8 10.98v41.94c0 19.56-9.78 29.34-29.34 29.34Z" fill="#fff"/></svg>