<?xml version="1.0" encoding="UTF-8"?>
<svg width="55px" height="49px" viewBox="0 0 55 49" version="1.1" xmlns="http://www.w3.org/2000/svg" xmlns:xlink="http://www.w3.org/1999/xlink">
    <title>logo</title>
    <g id="Page-1" stroke="none" stroke-width="1" fill="none" fill-rule="evenodd">
        <g id="glowna" transform="translate(-24.000000, -24.000000)" fill="#20202E">
            <g id="logo" transform="translate(51.382408, 48.549552) rotate(-20.000000) translate(-51.382408, -48.549552) translate(28.954121, 31.097390)">
                <path d="M35.6799573,22.7903356 L35.6798604,32.9043249 C35.6798604,34.0088944 34.7844299,34.9043249 33.6798604,34.9043249 L11.3109164,34.9043249 C10.2063469,34.9043249 9.31091639,34.0088944 9.31091639,32.9043249 L9.30994444,26.8090388 C13.2803384,27.3810366 18.3899498,27.2548906 23.8502523,26.292092 C28.3376496,25.5008428 32.4092125,24.2596119 35.6799573,22.7903356 Z M21.5178284,13.0642586 C27.20639,12.0612117 32.3764205,11.9180277 35.6801488,12.5169598 L35.6805993,18.3910764 C32.7204403,19.8957533 28.2405107,21.3058952 23.1299449,22.2070258 C17.6338123,23.1761423 12.6217232,23.3425857 9.30924843,22.8125533 L9.3095355,16.7099015 C12.2671248,15.2695875 16.60056,13.9313057 21.5178284,13.0642586 Z M33.6798604,8.53435648 C34.741586,8.53435648 35.6100821,9.36167045 35.6758589,10.4068088 C31.7065568,9.83561331 26.598753,9.96202907 21.1405245,10.924462 C16.6530056,11.7157327 12.5813436,12.9570094 9.31055366,14.4263379 L9.31091639,10.5343565 C9.31091639,9.42978698 10.2063469,8.53435648 11.3109164,8.53435648 L33.6798604,8.53435648 Z" id="Combined-Shape"></path>
                <path d="M22.4282865,13.6081185 C34.2491066,13.6081185 43.8317747,17.0887198 43.8317747,21.3822591 C43.8317747,25.6757983 34.2491066,29.1563996 22.4282865,29.1563996 C10.6074664,29.1563996 1.02479826,25.6757983 1.02479826,21.3822591 C1.02479826,17.0887198 10.6074664,13.6081185 22.4282865,13.6081185 Z M22.4282865,15.773069 C12.8901075,15.773069 5.15788564,17.8438065 5.15788564,20.3981906 C5.15788564,22.9525748 12.8901075,25.0233122 22.4282865,25.0233122 C31.9664655,25.0233122 39.6986874,22.9525748 39.6986874,20.3981906 C39.6986874,17.8438065 31.9664655,15.773069 22.4282865,15.773069 Z" id="Combined-Shape-Copy-2" transform="translate(22.428286, 21.382259) rotate(-10.000000) translate(-22.428286, -21.382259) "></path>
                <rect id="Rectangle" x="9.22932258" y="9.95677074" width="26.3699684" height="6.83665848"></rect>
                <path d="M39.2220887,6.85518683 C38.5498977,6.85518683 37.8777067,6.97804468 37.2055157,7.22376038 L37.2062095,7.22568992 C36.9463543,7.31912356 36.659957,7.18421218 36.5665233,6.9243569 C36.5272028,6.81499963 36.5272028,6.695361 36.5665233,6.58600373 C36.8141686,5.91450653 36.9370264,5.24231554 36.9370264,4.57012455 C36.9370264,3.89793357 36.8141686,3.22574258 36.5684529,2.55355159 L36.5665233,2.55424538 C36.4730897,2.2943901 36.6080011,2.00799284 36.8678564,1.91455919 C36.9772136,1.87523866 37.0968523,1.87523866 37.2062095,1.91455919 C37.8777067,2.16220443 38.5498977,2.28506228 39.2220887,2.28506228 C39.8942797,2.28506228 40.5664707,2.16220443 41.2386617,1.91648873 L41.2379679,1.91455919 C41.4978232,1.82112555 41.7842204,1.95603693 41.8776541,2.21589221 C41.9169746,2.32524947 41.9169746,2.44488811 41.8776541,2.55424538 C41.6300088,3.22574258 41.507151,3.89793357 41.507151,4.57012455 C41.507151,5.24231554 41.6300088,5.91450653 41.8757245,6.58669752 L41.8776541,6.58600373 C41.9710877,6.84585901 41.8361763,7.13225627 41.5763211,7.22568992 C41.4669638,7.26501045 41.3473251,7.26501045 41.2379679,7.22568992 C40.5664707,6.97804468 39.8942797,6.85518683 39.2220887,6.85518683 Z" id="Star-Copy-7" transform="translate(39.222089, 4.570125) rotate(-45.000000) translate(-39.222089, -4.570125) "></path>
            </g>
        </g>
    </g>
</svg>