<svg width="40" height="42" viewBox="0 0 40 42" fill="none" xmlns="http://www.w3.org/2000/svg">
<path fill-rule="evenodd" clip-rule="evenodd" d="M19.5228 0.30658L21.0144 1.72549C24.7741 5.30204 29.8452 7.49241 35.4302 7.49241C35.5191 7.49241 35.6079 7.49186 35.6966 7.49075L37.2873 7.47091L37.7842 8.98893C38.6033 11.4914 39.0456 14.1632 39.0456 16.9343C39.0456 28.7821 30.9782 38.7318 20.0635 41.5536L19.5228 41.6934L18.9821 41.5536C8.06734 38.7318 0 28.7821 0 16.9343C0 14.1632 0.442247 11.4914 1.26136 8.98893L1.75824 7.47091L3.34898 7.49075C3.43762 7.49186 3.52641 7.49241 3.61533 7.49241C9.20039 7.49241 14.2715 5.30204 18.0312 1.72549L19.5228 0.30658ZM4.96161 11.8148C4.55477 13.4519 4.3384 15.1664 4.3384 16.9343C4.3384 26.5491 10.754 34.664 19.5228 37.1858C28.2916 34.664 34.7072 26.5491 34.7072 16.9343C34.7072 15.1664 34.4908 13.4519 34.084 11.8148C28.5816 11.5248 23.5425 9.46813 19.5228 6.20153C15.5031 9.46813 10.4639 11.5248 4.96161 11.8148Z" fill="#8B5CF6"/>
</svg>
