<svg width="32" height="32" fill="none" xmlns="http://www.w3.org/2000/svg"><path fill-rule="evenodd" clip-rule="evenodd" d="M16 3.5C9.09644 3.5 3.5 9.09644 3.5 16c0 6.9036 5.59644 12.5 12.5 12.5 6.9036 0 12.5-5.5964 12.5-12.5 0-.9215-.0995-1.818-.2877-2.68l2.931-.64c.2338 1.0709.3567 2.182.3567 3.32 0 8.5604-6.9396 15.5-15.5 15.5C7.43959 31.5.5 24.5604.5 16 .5 7.43959 7.43959.5 16 .5c3.793 0 7.2712 1.36431 9.9649 3.62727l-1.9298 2.297C21.8618 4.59841 19.0611 3.5 16 3.5Z" fill="#3880FF"/><path fill-rule="evenodd" clip-rule="evenodd" d="M27 5.5c-.8284 0-1.5.67157-1.5 1.5s.6716 1.5 1.5 1.5 1.5-.67157 1.5-1.5-.6716-1.5-1.5-1.5ZM22.5 7c0-2.48528 2.0147-4.5 4.5-4.5s4.5 2.01472 4.5 4.5-2.0147 4.5-4.5 4.5-4.5-2.01472-4.5-4.5Z" fill="#194BFD"/><circle cx="16" cy="16" r="6" stroke="#0CADFF" stroke-width="3"/></svg>