<svg width="30" viewBox="0 0 512 512" fill="none" xmlns="http://www.w3.org/2000/svg"><rect id="b" width="512" height="512" x="0" y="0" rx="128" fill="#222" stroke="#FFF" stroke-width="0" stroke-opacity="100%" paint-order="stroke"/><rect width="512" height="512" fill="url(#a)" rx="128" style="mix-blend-mode:overlay"/><defs><radialGradient id="a" cx="0" cy="0" r="1" gradientUnits="userSpaceOnUse" gradientTransform="matrix(0 512 -512 0 256 0)"><stop stop-color="#fff"/><stop offset="1" stop-color="#fff" stop-opacity="0"/></radialGradient></defs><svg xmlns="http://www.w3.org/2000/svg" width="310" height="310" fill="#e8e8e8" viewBox="0 0 256 256" x="101" y="101" alignment-baseline="middle" style="color:#fff"><path d="M168 32H88a56.06 56.06 0 0 0-56 56v80a56.06 56.06 0 0 0 56 56h48a8.07 8.07 0 0 0 2.53-.41c26.23-8.75 76.31-58.83 85.06-85.06A8.07 8.07 0 0 0 224 136V88a56.06 56.06 0 0 0-56-56ZM48 168V88a40 40 0 0 1 40-40h80a40 40 0 0 1 40 40v40h-24a56.06 56.06 0 0 0-56 56v24H88a40 40 0 0 1-40-40Zm96 35.14V184a40 40 0 0 1 40-40h19.14C191 163.5 163.5 191 144 203.14Z"/></svg></svg>