<?xml version="1.0" encoding="UTF-8"?>
<svg version="1.1" viewBox="0 0 1600 1592" width="1280" height="1280" xmlns="http://www.w3.org/2000/svg">
<path transform="translate(270,173)" d="m0 0c4.27-0.0221 8.53-0.0352 12.8-0.0469 1.19-0.00628 2.39-0.0126 3.62-0.019 11.3-0.0231 22.4 0.779 33.6 2.07 1.18 0.134 2.35 0.268 3.56 0.407 50.6 5.91 99.8 17.6 146 38.6 1.17 0.523 2.34 1.05 3.55 1.59 28.3 12.7 54.8 28 80.4 45.4 0.845 0.57 0.845 0.57 1.71 1.15 8.34 5.64 16.4 11.6 24.3 17.8 0.66 0.522 1.32 1.04 2 1.58 7.02 5.57 13.9 11.1 20.1 17.6 2.09 2.06 4.31 3.8 6.62 5.59 5.88 4.72 11.2 9.98 16.5 15.3 0.852 0.851 1.7 1.7 2.58 2.58 14.2 14.3 14.2 14.3 14.2 17.4 0.99 0.33 1.98 0.66 3 1 5.7 5.37 10.3 12.1 15.1 18.3 1.8 2.31 3.62 4.61 5.46 6.88 13.6 16.9 25.6 35 36.4 53.8 0.397 0.686 0.795 1.37 1.2 2.08 2.66 4.61 5.25 9.25 7.8 13.9 0.41 0.747 0.821 1.49 1.24 2.26 27.9 51 46.1 107 53.8 165 0.104 0.725 0.207 1.45 0.314 2.2 0.703 4.92 1.22 9.85 1.69 14.8 0.126 1.33 0.126 1.33 0.254 2.68 2.27 25.3 2.03 50.6 1.99 75.9-0.00597 5.86-0.00239 11.7 8.29e-4 17.6 0.00623 12 0.00316 23.9-0.00559 35.9-0.00865 11.8-0.0135 23.6-0.0133 35.4 1.15e-5 1.11 1.15e-5 1.11 2.32e-5 2.24 4.09e-5 3 1.07e-4 5.99 2.06e-4 8.99 9.03e-4 28-0.00899 56-0.0244 84.1-0.0137 24.9-0.0199 49.8-0.0192 74.7 4.04e-5 1.6 8.08e-5 3.21 1.21e-4 4.81 3.05e-5 1.19 3.05e-5 1.19 6.17e-5 2.4 1.01e-4 3.99 1.91e-4 7.98 2.7e-4 12 1.67e-5 0.787 3.34e-5 1.57 5.06e-5 2.38 3.65e-4 20.8-0.00417 41.7-0.0104 62.5-2.2e-4 0.74-4.41e-4 1.48-6.67e-4 2.24-8.88e-4 2.98-0.00178 5.95-0.00269 8.93-0.00316 10.4-0.00467 20.7-0.00511 31.1-5.96e-4 13.3-0.00468 26.7-0.0144 40-0.00463 6.43-0.00766 12.9-0.00641 19.3 0.00109 5.87-0.00238 11.7-0.00965 17.6-0.00182 2.13-0.00193 4.27-2.33e-4 6.4 0.00204 2.88-0.00196 5.76-0.00761 8.64 0.00206 0.846 0.00411 1.69 0.00623 2.56-0.0207 5.7-0.0207 5.7-1.13 6.82-38.2 3.47-82.1-4.26-119-14-1.31-0.339-2.61-0.677-3.92-1.01-35.8-9.31-70.2-21.9-103-39-1.82-0.936-3.64-1.87-5.45-2.81-33.1-17.1-33.1-17.1-43-24.3-3.33-2.4-6.76-4.65-10.2-6.91-5.26-3.49-10.4-7.05-15.4-10.9-0.69-0.529-1.38-1.06-2.09-1.6-8.66-6.67-17.1-13.6-25.2-20.9-1.97-1.77-3.95-3.49-5.98-5.19-7.89-6.64-15.3-13.6-22.7-20.9-0.867-0.858-1.73-1.72-2.63-2.6-5.18-5.2-9.94-10.6-14.5-16.4-1.87-2.26-3.81-4.28-5.93-6.29-5.34-5.18-9.61-11.2-14.1-17.1-1.14-1.46-2.29-2.92-3.44-4.38-18.7-24.1-36-50.2-49.6-77.6-0.366-0.73-0.732-1.46-1.11-2.21-15.7-31.5-28.2-64.7-36.9-98.8-0.295-1.15-0.59-2.29-0.894-3.47-3.62-14.2-6.63-28.5-8.86-43-0.186-1.2-0.373-2.4-0.565-3.63-0.496-3.41-0.936-6.82-1.35-10.2-0.226-1.83-0.459-3.65-0.7-5.48-3.34-25.9-3.04-51.8-2.98-77.9 0.0118-5.98 0.00911-12 0.00695-17.9-0.00391-12.2 0.00596-24.4 0.0241-36.6 0.0178-12.1 0.0293-24.1 0.0326-36.2 2.06e-4 -0.753 4.12e-4 -1.51 6.25e-4 -2.28 0.00102-3.83 0.00192-7.65 0.00278-11.5 0.00628-27 0.0264-54 0.0549-81 0.0276-26.2 0.0488-52.4 0.0615-78.7 3.95e-4 -0.81 7.89e-4 -1.62 0.0012-2.46 0.00396-8.14 0.00778-16.3 0.0115-24.4 0.00761-16.6 0.0161-33.1 0.0251-49.7 4.12e-4 -0.762 8.24e-4 -1.52 0.00125-2.31 0.0275-50.8 0.0751-102 0.126-152z" fill="#000102"/>
<path transform="translate(1320 618)" d="m0 0c1.2-0.00387 2.41-0.00773 3.64-0.0117 1.71 0.00193 1.71 0.00193 3.45 0.00391 1.53 0.00169 1.53 0.00169 3.08 0.00342 2.32 0.129 2.32 0.129 3.32 1.13 0.0983 1.76 0.126 3.52 0.126 5.28 0.00391 1.73 0.00391 1.73 0.0079 3.49-0.00335 1.92-0.00335 1.92-0.00676 3.88 0.00115 1.36 0.00274 2.73 0.00473 4.09 0.0042 3.76 0.0021 7.53-9.86e-4 11.3-0.00225 4.06 0.00123 8.11 0.00398 12.2 0.00446 7.96 0.00348 15.9 5.87e-4 23.9-0.00226 6.5-0.00256 13-0.00148 19.5 1.53e-4 0.925 3.06e-4 1.85 4.64e-4 2.8 3.2e-4 1.88 6.44e-4 3.76 9.73e-4 5.64 0.00286 17.7-4.34e-4 35.3-0.0058 53-0.00444 15.1-0.00372 30.1 9.19e-4 45.2 0.0054 17.5 0.00743 35.1 0.00439 52.6-3.18e-4 1.89-6.33e-4 3.77-9.43e-4 5.66-1.54e-4 0.928-3.09e-4 1.86-4.68e-4 2.81-8.53e-4 6.44 5.92e-4 12.9 0.00295 19.3 0.0222 66.8 0.0222 66.8-0.57 93.7-0.0186 0.879-0.0372 1.76-0.0564 2.66-1.92 86.8-30.8 172-88.5 254-0.682 0.937-1.36 1.87-2.07 2.84-5.54 7.54-11.5 14.6-17.6 21.7-1.05 1.2-2.09 2.42-3.13 3.63-10.6 12.3-21.7 24.4-34 35-2.56 2.22-5.04 4.52-7.53 6.81-5.04 4.59-10.2 8.88-15.6 13.1-0.963 0.758-1.93 1.52-2.92 2.3-40.4 31.5-86.2 57-135 72.7-1.65 0.53-1.65 0.53-3.33 1.07-18 5.74-36.1 10.4-54.7 13.9-1.2 0.227-2.39 0.453-3.62 0.687-26.9 5.02-53.9 8.05-81.4 7.31-1.05-3.45-1.13-6.61-1.13-10.2-0.00261-1.28-0.00522-2.56-0.0079-3.88 0.00216-1.43 0.00442-2.85 0.00676-4.28-0.00115-1.51-0.00274-3.02-0.00473-4.53-0.00419-4.16-0.00211-8.32 9.86e-4 -12.5 0.00226-4.48-0.00123-8.97-0.00398-13.5-0.00445-8.79-0.00348-17.6-5.87e-4 -26.4 0.00226-7.14 0.00257-14.3 0.00148-21.4-1.53e-4 -1.02-3.06e-4 -2.03-4.64e-4 -3.08-3.2e-4 -2.06-6.44e-4 -4.13-9.73e-4 -6.19-0.00285-19.4 4.3e-4 -38.7 0.0058-58.1 0.00447-16.6 0.00369-33.2-9.19e-4 -49.8-0.00535-19.3-0.00746-38.6-0.00439-57.9 3.19e-4 -2.06 6.33e-4 -4.11 9.43e-4 -6.17 1.54e-4 -1.01 3.09e-4 -2.02 4.68e-4 -3.07 8.63e-4 -7.13-5.94e-4 -14.3-0.00295-21.4-0.00281-8.69-0.00204-17.4 0.00328-26.1 0.00263-4.44 0.00366-8.87 3.51e-4 -13.3-0.00298-4.06-0.00134-8.13 0.00398-12.2 0.00112-1.47 5.52e-4 -2.94-0.00188-4.41-0.0107-6.99 0.0623-13.8 1.13-20.7 0.144-2.16 0.264-4.31 0.359-6.47 1.87-37.4 9.21-73.6 20.8-109 0.248-0.763 0.495-1.53 0.751-2.31 4.93-15.1 10.8-29.6 17.5-44 0.284-0.608 0.567-1.22 0.859-1.84 4.31-9.22 8.74-18.3 13.8-27.2 0.42-0.745 0.84-1.49 1.27-2.26 4.96-8.78 10-17.5 15.7-25.8 1.49-2.17 2.94-4.35 4.38-6.55 7.51-11.5 15.7-22.2 24.5-32.8 2.12-2.58 4.2-5.19 6.28-7.81 9.46-11.9 9.46-11.9 13.9-15.8h2c0.227-0.557 0.454-1.11 0.688-1.69 1.69-2.97 3.78-5.03 6.31-7.31h2c0.33-0.99 0.66-1.98 1-3h2c0.99-1.98 0.99-1.98 2-4h2c0.33-0.99 0.66-1.98 1-3h2c0.33-0.99 0.66-1.98 1-3 1.6-1.58 1.6-1.58 3.62-3.25 2.67-2.25 5.17-4.52 7.56-7.06 4.56-4.62 9.78-8.39 14.9-12.3 1.9-1.44 3.77-2.91 5.64-4.38 17-13.3 34.9-25.2 53.8-35.7 1.69-0.939 3.38-1.88 5.06-2.83 48.3-27.2 101-43.4 156-51.3 1.07-0.158 1.07-0.158 2.17-0.32 15.3-2.23 30.6-3.05 46.1-2.99z" fill="#000102"/>
<path transform="translate(1052 217)" d="m0 0c1.01 0.00323 1.01 0.00323 2.04 0.00653 44.4 0.226 84 18 117 47.3 0.777 0.692 1.55 1.38 2.36 2.1 28.2 26.7 48.4 70.3 49.8 109 0.643 23.9-1.77 45-9.12 67.8-0.231 0.722-0.461 1.44-0.699 2.19-5.35 16.4-14.2 31-24.3 44.8-0.602 0.849-1.2 1.7-1.82 2.57-2.96 4.11-2.96 4.11-4.18 5.43h-2c-0.208 0.532-0.415 1.06-0.629 1.61-1.93 3.35-4.57 5.88-7.31 8.57-0.583 0.576-1.17 1.15-1.77 1.75-9.29 9.06-19.3 16.3-30.3 23.1-0.807 0.534-1.61 1.07-2.45 1.62-21.1 13.6-48.3 20.9-73.2 22.2-2.87 0.159-5.67 0.445-8.52 0.812-6.02 0.622-11.9-0.0169-17.9-0.625-1.39-0.114-2.78-0.228-4.16-0.34-27.3-2.4-56.3-12.2-78.4-28.8-1.71-1.29-3.43-2.55-5.16-3.8-7.36-5.36-14-11.2-20.4-17.6-0.477-0.478-0.953-0.957-1.44-1.45-7.39-7.45-13.9-15.1-19.3-24.1-1.2-2-2.45-3.95-3.71-5.91-23.2-36.9-29.8-82.7-20.4-125 5.3-21.9 13.9-44.1 27.9-62 1.05-1.33 1.05-1.33 2.11-2.69 33.9-42.1 81.2-68.9 136-68.6z" fill="#000102"/>
</svg>
