<?xml version="1.0" encoding="UTF-8"?>
<svg version="1.1" viewBox="0 0 1600 1592" width="1280" height="1280" xmlns="http://www.w3.org/2000/svg">
<path transform="translate(273 173)" d="m0 0c1.17 0.00616 1.17 0.00616 2.36 0.0125 0.877 9.67e-4 1.75 0.00193 2.66 0.00293 0.952 0.0132 1.9 0.0264 2.88 0.04 0.992 0.00935 1.98 0.0187 3.01 0.0283 3.06 0.0379 6.12 0.0957 9.18 0.159 0.862 0.014 1.72 0.028 2.61 0.0425 16.3 0.313 32.3 2.57 48.4 4.96 1.05 0.153 2.1 0.307 3.18 0.465 47.4 7.02 94.9 21 138 42.5 1.95 0.979 3.91 1.94 5.88 2.89 8.25 4.02 16.4 8.31 24.5 12.6 1.49 0.783 1.49 0.783 3 1.58 6.08 3.28 11.7 6.91 17.2 11.1 4.84 3.54 10.1 6.49 15.3 9.39 1.09 0.721 1.09 0.721 2.21 1.46v2c0.718 0.254 1.44 0.508 2.18 0.77 3.04 1.32 5.36 2.93 8.01 4.92 3.68 2.74 7.39 5.41 11.2 8 3.59 2.49 6.57 5.17 9.62 8.31 1.65 1.02 3.32 2.03 5 3 1.01 0.991 2.01 1.99 3 3 2.11 1.81 4.23 3.6 6.36 5.38 0.543 0.535 1.09 1.07 1.64 1.62v2c0.835 0.371 0.835 0.371 1.69 0.75 2.74 1.48 4.99 3.18 7.31 5.25v2c1.08 0.34 1.08 0.34 2.19 0.688 3.4 1.59 5.26 3.57 7.81 6.31 0.825 0.825 1.65 1.65 2.5 2.5 0.825 0.825 1.65 1.65 2.5 2.5 1.24 1.21 1.24 1.21 2.5 2.44 3.48 3.56 6.58 7.37 9.62 11.3 1.85 2.44 1.85 2.44 4.88 4.25 1.01 1.66 2.01 3.33 3 5 1.46 1.68 2.97 3.32 4.5 4.94 7.68 8.31 14.5 17.3 21.2 26.4 1.27 1.67 2.6 3.26 3.96 4.86 2.07 2.52 3.68 5.01 5.31 7.81 0.66 0.66 1.32 1.32 2 2 1.06 1.75 2.02 3.54 3 5.34 1.02 1.83 1.02 1.83 3 3.66 3.99 5.88 7.63 11.9 11 18.2 1.04 1.94 1.04 1.94 3.04 3.78 3 5.54 3 5.54 3 8 0.66 0.33 1.32 0.66 2 1 1.36 2.5 2.64 5 3.88 7.56 0.339 0.692 0.678 1.38 1.03 2.1 0.69 1.41 1.38 2.82 2.06 4.22 2.22 4.54 4.5 9.06 6.78 13.6 3.58 7.11 7.04 14.3 10.3 21.5 0.286 0.645 0.572 1.29 0.867 1.95 1.54 3.52 2.92 7.09 4.25 10.7 1.08 2.9 2.2 5.78 3.32 8.67 5.52 14.4 9.9 28.8 14 43.6 0.512 1.84 1.04 3.67 1.58 5.5 3.14 11.2 5.76 22.6 7.81 34 0.124 0.679 0.247 1.36 0.375 2.06 0.507 2.96 0.809 5.72 0.762 8.73-0.169 2.7-0.169 2.7 1 4.47 1.47 3.22 1.63 6.44 1.9 9.92 0.0956 1.1 0.0956 1.1 0.193 2.23 0.133 1.55 0.262 3.1 0.388 4.65 0.191 2.36 0.394 4.72 0.599 7.08 0.128 1.51 0.256 3.02 0.383 4.54 0.0593 0.7 0.119 1.4 0.18 2.12 0.246 3.06 0.404 6.06 0.38 9.13-0.167 2.61-0.167 2.61 1.03 4.63 0.151 1.4 0.246 2.81 0.312 4.22 0.062 1.31 0.062 1.31 0.125 2.64 0.0387 0.946 0.0775 1.89 0.117 2.87 0.0632 1.48 0.0632 1.48 0.128 2.99 0.418 10.6 0.457 21.1 0.445 31.7 0.00116 2.17 0.00275 4.33 0.00473 6.5 0.00413 5.89 0.00213 11.8-9.86e-4 17.7-0.00228 6.38 0.00124 12.8 0.00398 19.1 0.00417 11.7 0.00383 23.5 0.00109 35.2-0.00252 10.8-0.00317 21.7-0.00198 32.5 1.15e-4 1.08 1.15e-4 1.08 2.31e-4 2.18 3.11e-4 2.93 6.3e-4 5.85 9.6e-4 8.78 0.00305 27.4 2.96e-4 54.8-0.0051 82.1-0.00476 24.3-0.00431 48.7 4.61e-4 73 0.00535 27.4 0.00748 54.7 0.00439 82.1-3.21e-4 2.91-6.34e-4 5.83-9.43e-4 8.74-7.91e-5 0.717-1.58e-4 1.43-2.4e-4 2.17-0.00114 10.8 1.95e-4 21.7 0.00272 32.5 0.00285 12.3 0.00206 24.6-0.00328 36.9-0.00264 6.28-0.00364 12.6-3.51e-4 18.9 0.00296 5.74 0.00137 11.5-0.00398 17.2-0.00113 2.09-5.31e-4 4.17 0.00188 6.26 3e-3 2.82-3.77e-5 5.63-0.00472 8.45 0.00234 0.827 0.00468 1.65 0.00709 2.51-0.0188 5.58-0.0188 5.58-1.13 6.69-62.1 5.58-132-13.5-189-37-1.23-0.504-1.23-0.504-2.48-1.02-4.56-1.88-9.05-3.89-13.5-5.98-0.924-0.433-1.85-0.866-2.8-1.31-12.6-5.9-25-11.9-37.2-18.6-2.06-1.12-4.13-2.21-6.21-3.31-18.3-9.79-35.6-21.6-52-34.4-1.8-1.39-3.61-2.77-5.42-4.15-7-5.37-13.6-11-19.9-17.1-2.77-2.59-5.69-4.95-8.65-7.32-5.88-4.77-11.2-9.97-16.5-15.4-0.893-0.894-1.79-1.79-2.71-2.71-5.05-5.08-9.88-10.3-14.5-15.7-1.35-1.48-2.7-2.96-4.06-4.44-32.2-35.8-57.4-76.8-78.6-120-1.74-3.51-3.52-7.01-5.3-10.5-2.15-4.55-4.07-9.2-4.07-14.3-0.66-0.33-1.32-0.66-2-1-1.19-2.44-1.19-2.44-2-5 0.33-0.66 0.66-1.32 1-2-0.66-0.33-1.32-0.66-2-1v-4c-0.66-0.33-1.32-0.66-2-1-1.45-3.61-2-6.07-2-10-0.66-0.33-1.32-0.66-2-1v-5c-0.66-0.33-1.32-0.66-2-1-0.724-1.98-1.38-3.99-2-6-0.518-1.27-1.04-2.54-1.56-3.81-2-5.26-2.44-10.6-2.44-16.2h-2c-0.678-2.18-1.34-4.37-2-6.56-0.557-1.83-0.557-1.83-1.12-3.69-0.875-3.75-0.875-3.75-0.812-7.4 0.22-3.33 0.22-3.33-1.48-5.68-1.76-2.98-2.31-5.33-2.89-8.73-0.206-1.18-0.412-2.36-0.625-3.58-0.308-1.88-0.308-1.88-0.622-3.8-0.323-1.93-0.323-1.93-0.653-3.89-1.81-11.2-3.31-22.4-3.78-33.7 0.33-0.33 0.66-0.66 1-1-0.99-1.48-0.99-1.48-2-3-1.89-11.9-1.14-24.4-1.13-36.4-0.00187-2.26-0.00417-4.52-0.00687-6.78-0.00609-6.18-0.00599-12.4-0.00481-18.5 1.84e-4 -5.99-0.00431-12-0.00861-18-0.00965-13.7-0.0125-27.5-0.0131-41.2-4.6e-4 -10.6-0.00252-21.2-0.0057-31.8-8.98e-4 -3.06-0.00179-6.11-0.00267-9.17-2.21e-4 -0.76-4.42e-4 -1.52-6.7e-4 -2.3-0.00615-21.4-0.0101-42.7-0.00966-64.1 1.56e-5 -0.804 3.12e-5 -1.61 4.72e-5 -2.44 8.31e-5 -4.08 1.82e-4 -8.15 2.85e-4 -12.2 1.99e-5 -0.809 3.99e-5 -1.62 6.04e-5 -2.45 4.04e-5 -1.64 8.22e-5 -3.27 1.25e-4 -4.91 6.14e-4 -25.5-0.00691-51-0.0206-76.5-0.0153-28.7-0.024-57.3-0.023-86 7.46e-5 -3.05 1.23e-4 -6.11 1.54e-4 -9.16 1.17e-5 -0.752 2.33e-5 -1.5 3.53e-5 -2.28 3.08e-5 -12.1-0.00636-24.2-0.015-36.3-0.00846-12.2-0.00948-24.3-0.00289-36.5 0.00338-6.59 0.00327-13.2-0.00535-19.8-0.0078-6.02-0.0065-12 0.00228-18.1 0.00155-2.19-3.36e-4 -4.38-0.00586-6.56-0.00697-2.96-0.00184-5.91 0.00656-8.87-0.00497-0.865-0.00994-1.73-0.0151-2.62 0.0475-7.82 0.0475-7.82 4.18-8.34zm-2.91 541v6h1v-6h-1zm3 34 1 2zm1 7v5h1v-5h-1zm2 14 1 2zm2 12 1 2zm1 5 1 3zm3 13 1 2zm3 12 1 2z" fill="#FCFCFC"/>
<path transform="translate(1321 618)" d="m0 0c1.52 0.00201 1.52 0.00201 3.08 0.00406 2.49 0.00347 4.98 0.00834 7.46 0.0145 0.0229 47.1 0.0405 94.2 0.0511 141 0.00125 5.57 0.00254 11.1 0.00387 16.7 3.93e-4 1.66 3.93e-4 1.66 7.95e-4 3.36 0.00435 17.9 0.0122 35.9 0.0214 53.8 0.00936 18.4 0.0149 36.8 0.0169 55.2 0.00137 11.4 0.00569 22.7 0.0138 34.1 0.0053 7.79 0.00688 15.6 0.00558 23.4-6.38e-4 4.49 3.15e-4 8.98 0.0057 13.5 0.00491 4.12 0.00508 8.24 0.00169 12.4-4.18e-4 1.48 8.13e-4 2.96 0.00398 4.44 0.0154 7.62-0.125 15.2-0.57 22.8-0.0388 0.693-0.0775 1.39-0.117 2.1-0.315 4.84-0.315 4.84-1.44 5.96-0.0734 2.65 0.00371 5.29 0.0625 7.95-0.0701 3.43-0.542 6.67-1.06 10.1-0.353 2.83-0.675 5.67-1 8.5-1.09 9.5-2.58 18.9-4.38 28.2-0.209 1.12-0.418 2.23-0.633 3.38-1.35 7.06-3.01 14-4.99 20.9-0.454 1.65-0.907 3.31-1.36 4.96-3.39 12.2-7.22 24.2-11.6 36-0.393 1.06-0.786 2.11-1.19 3.2-9.74 25.9-21.4 50.1-35.8 73.8-0.467 0.772-0.934 1.54-1.41 2.34-13.1 21.6-28.1 41.6-44.6 60.7-0.984 1.15-0.984 1.15-1.99 2.33-3.33 3.87-6.82 7.51-10.5 11.1-1.69 1.67-1.69 1.67-3.48 4.08-1.75 2.12-3.36 3.68-5.44 5.44-4.04 3.44-7.72 7.16-11.4 10.9-5.76 5.82-11.8 11.1-18.2 16.1-1.2 0.991-2.41 1.98-3.61 2.98-21.2 17.5-43.9 32.9-68.2 45.8-2.2 1.18-4.39 2.39-6.58 3.59-61.9 33.7-138 53.9-209 51.6-0.33-1.32-0.66-2.64-1-4h-2c-0.046-43.2-0.0811-86.4-0.102-130-0.0025-5.13-0.00509-10.3-0.00773-15.4-5.25e-4 -1.02-0.00105-2.04-0.00159-3.09-0.00865-16.4-0.0244-32.8-0.0429-49.3-0.0188-16.9-0.0298-33.8-0.0339-50.7-0.00247-9.47-0.00837-18.9-0.0233-28.4-0.116-75.8-0.116-75.8 2.08-110 0.142-2.33 0.264-4.67 0.384-7.01 0.0419-0.791 0.0839-1.58 0.127-2.4 0.0799-1.51 0.157-3.03 0.229-4.54 0.278-5.1 0.278-5.1 1.39-6.21 0.323-1.89 0.589-3.79 0.832-5.7 0.157-1.18 0.313-2.37 0.475-3.59 0.25-1.9 0.25-1.9 0.506-3.84 1.23-9.01 2.61-17.6 5.21-26.4 0.922-3.3 1.6-6.56 2.23-9.93 2.38-12.5 6.47-24.4 10.7-36.4 0.934-2.71 1.83-5.43 2.7-8.16 16.7-51.7 47.4-99.8 82.4-141 0.605-0.718 1.21-1.44 1.83-2.18 4.1-4.79 8.52-9.22 13-13.6 2.27-2.2 2.27-2.2 4.14-5.2h2c0.33-0.99 0.66-1.98 1-3h2c0.33-0.99 0.66-1.98 1-3h2c0.99-1.98 0.99-1.98 2-4h2c0.33-0.99 0.66-1.98 1-3h2v-2c1.33-1.34 1.33-1.34 3.25-2.94 3.12-2.64 6.16-5.34 9.15-8.13 5.32-4.95 10.8-9.56 16.6-13.9 0.905-0.712 1.81-1.42 2.74-2.16 14.4-11.3 29.4-21.7 45.3-30.8 1.79-1.01 3.57-2.05 5.35-3.09 58.4-34 123-54.1 190-59.2 1.57-0.12 1.57-0.12 3.16-0.243 7.31-0.483 14.6-0.544 21.9-0.525zm-436 393 1 2zm-2 34 1 2z" fill="#FCFCFC"/>
<path transform="translate(1148,246)" d="m0 0c0.661 0.414 1.32 0.828 2 1.25 1.37 0.86 2.69 1.79 4 2.75v2c1.65 0.66 3.3 1.32 5 2v2c0.835 0.402 0.835 0.402 1.69 0.812 0.763 0.392 1.53 0.784 2.31 1.19 0.763 0.371 1.53 0.743 2.31 1.12 3.9 2.72 6.66 6.23 9.69 9.88 1.1 1.29 2.21 2.59 3.31 3.88 0.706 0.831 0.706 0.831 1.43 1.68 1.04 1.19 2.14 2.33 3.26 3.45 0.973 1.26 1.93 2.53 2.88 3.81 1.66 2.24 3.33 4.43 5.12 6.56 5.39 7.08 9.3 15 13.2 23 1.4 2.85 2.8 5.62 4.45 8.34 1.28 2.16 2.1 4.09 2.86 6.47 0.247 0.779 0.495 1.56 0.75 2.36 2.03 6.64 2.03 6.64 3 9.94 0.486 1.62 0.998 3.24 1.54 4.84 2.04 6.2 2.97 12.3 3.74 18.8 0.441 3.6 1.01 7.15 1.6 10.7 1.58 10.9 1.46 22.2-0.125 33.1-0.211 1.54-0.211 1.54-0.426 3.11-1.98 13.4-4.46 26.3-9.57 38.9-0.329 0.875-0.657 1.75-0.996 2.65-7.09 18.6-18.5 36.7-32 51.3h-2c-0.403 0.894-0.403 0.894-0.813 1.81-1.95 3.61-4.95 6.06-7.94 8.82-0.67 0.62-1.34 1.24-2.03 1.88-6.36 5.78-13 10.8-20.2 15.5-0.577 0.385-1.15 0.77-1.75 1.17-10.4 6.92-21.5 11.5-33.3 15.8-0.67 0.253-1.34 0.505-2.03 0.766-18.5 6.94-46.7 14.6-66 9.23-1.56-0.163-3.12-0.292-4.68-0.395-11.2-0.822-21.6-2.09-32.3-5.61-1.1-0.342-1.1-0.342-2.22-0.69-16.8-5.26-34.3-12.2-48.2-23.3-2.52-1.98-5.1-3.81-7.73-5.64-5.81-4.22-10.9-8.94-15.9-14.1-0.871-0.882-1.74-1.76-2.64-2.67-9.53-9.76-17.2-19.9-23.9-31.8-2.2-3.9-4.55-7.34-7.4-10.8-1.12-2.94-1.12-2.94-2-6-1.06-3.49-2.29-6.61-4-9.81-1.88-3.63-2.8-7.09-3.51-11.1-0.396-2.09-0.396-2.09-1.45-3.81-1.59-3.44-2.01-7.04-2.61-10.8-0.25-1.51-0.501-3.02-0.754-4.53-0.162-0.999-0.162-0.999-0.326-2.02-0.245-1.34-0.542-2.67-0.88-3.99-3.5-14.4-2.02-31.6 0.523-46 0.14-0.81 0.279-1.62 0.423-2.45 2.26-13 4.51-25.7 10.6-37.5 0.433-1.03 0.866-2.06 1.31-3.12 6.35-14.9 15-31.5 26.7-42.9 1.05-1.2 2.09-2.41 3.12-3.62 20.7-23.7 47.8-41.2 77.9-50.4 1.22-0.388 2.45-0.776 3.71-1.18 7.7-2.33 15.3-3.87 23.3-4.82 0.893-0.112 1.79-0.224 2.71-0.34 41.1-4.29 81 5.32 115 28.3zm-265 122 1 2zm-1 10 1 2zm0 9v5h1v-5h-1z" fill="#FCFCFC"/>
</svg>
